<svg xmlns="http://www.w3.org/2000/svg" viewBox="0 -50 850 800"
  style="fill:rgb(67, 181, 229)">
  <g>
    <path
      d="M119.55,89.2A22.34,22.34,0,0,0,96,91.79c-4.88,3.86-10.49,7.85-16.43,12.07C46.27,127.47.74,159.82.11,230.68c-.18,19.55-.1,59.06,0,87.91,0,10.61,0,20,0,26.89.05,88.48,94.72,142.77,98.75,145a22.34,22.34,0,0,0,33.3-19.47V109.31A22.34,22.34,0,0,0,119.55,89.2ZM87.47,426.42c-20.42-18.84-42.66-47.13-42.67-81,0-6.88,0-16.31,0-26.94,0-28.75-.13-68.12,0-87.44.34-38.55,19.23-59.53,42.67-77.68Z" />
    <path
      d="M287.13,10.51c-57.43,0-105.41,41.08-107.42,42.83A22.32,22.32,0,0,0,172,70.22V524.85c0,11.9,9,22.29,20.85,23.06a22.34,22.34,0,0,0,23.83-22.3V324.17a6,6,0,0,1,6-6h36.22a6,6,0,0,1,6,6V582c0,11.9,9,22.29,20.85,23.06a22.34,22.34,0,0,0,23.83-22.3V32.86A22.37,22.37,0,0,0,287.13,10.51ZM216.69,267.56V81.25c9.69-6.84,27.51-17.86,48.14-23.1V267.56a6,6,0,0,1-6,6H222.65A6,6,0,0,1,216.69,267.56Z" />
    <path
      d="M369.61,406.44a22.35,22.35,0,0,0-22.35,22.34V619.26a22.35,22.35,0,0,0,44.69,0V428.78A22.34,22.34,0,0,0,369.61,406.44Z" />
    <path
      d="M538.05,23.9c-11.87.77-20.86,11.16-20.86,23.06V524.51a6,6,0,0,1-6,6H483.85a6,6,0,0,1-6-6V23.11c0-11.9-9-22.29-20.86-23.06A22.35,22.35,0,0,0,433.2,22.34V333.12a6.14,6.14,0,0,1-10.2,4.62l-29-25.4a6.11,6.11,0,0,1-2.08-4.59V23.11C392,11.21,383,.82,371.1.05a22.35,22.35,0,0,0-23.84,22.29V307.75a50.8,50.8,0,0,0,17.3,38.18l66.55,58.36a6.15,6.15,0,0,1,2.09,4.62V686.75c0,11.9,9,22.29,20.86,23.06a22.35,22.35,0,0,0,23.83-22.3V581.12a6,6,0,0,1,6-6h27.38a6,6,0,0,1,6,6V729.41c0,11.9,9,22.29,20.86,23.06a22.35,22.35,0,0,0,23.83-22.3V46.2A22.35,22.35,0,0,0,538.05,23.9Z" />
    <path
      d="M627.42,57.07a22.35,22.35,0,0,0-22.34,22.35V160a22.35,22.35,0,0,0,44.69,0V79.42A22.35,22.35,0,0,0,627.42,57.07Z" />
    <path
      d="M627.42,208.08a22.34,22.34,0,0,0-22.34,22.34V619.26a22.35,22.35,0,0,0,44.69,0V230.42A22.35,22.35,0,0,0,627.42,208.08Z" />
    <path
      d="M713.36,358.92a22.35,22.35,0,0,0,22.35-22.34V139.94a22.35,22.35,0,1,0-44.69,0V336.58A22.34,22.34,0,0,0,713.36,358.92Z" />
    <path
      d="M799.3,194.2A22.35,22.35,0,0,0,777,216.54v30.21a22.35,22.35,0,0,0,44.69,0V216.54A22.34,22.34,0,0,0,799.3,194.2Z" />
    <path
      d="M799.3,456.59A22.35,22.35,0,0,0,777,478.93v34.24a22.35,22.35,0,1,0,44.69,0V478.93A22.34,22.34,0,0,0,799.3,456.59Z" />
    <path
      d="M797.81,289.65c-11.88.77-20.86,11.16-20.86,23.06v67.5a6,6,0,0,1-6,6H713.36A22.34,22.34,0,0,0,691,408.51V553.78c0,11.9,9,22.29,20.85,23.06a22.34,22.34,0,0,0,23.83-22.3V436.82a6,6,0,0,1,6-6H799.3a22.34,22.34,0,0,0,22.34-22.34V312A22.35,22.35,0,0,0,797.81,289.65Z" />
  </g>
</svg>